<?xml version="1.0" encoding="utf-8"?>
<!-- Generator: Adobe Illustrator 26.5.0, SVG Export Plug-In . SVG Version: 6.00 Build 0)  -->
<svg version="1.1" id="Capa_1" xmlns="http://www.w3.org/2000/svg" xmlns:xlink="http://www.w3.org/1999/xlink" x="0px" y="0px"
	 viewBox="0 0 1366 768" style="enable-background:new 0 0 1366 768;" xml:space="preserve">
<style type="text/css">
	.st0{fill:none;stroke:#C1272D;stroke-width:3;stroke-miterlimit:10;}
	.st1{fill:#C1272D;}
	.st2{fill:none;}
	.st3{font-family:'Montserrat-Medium';}
	.st4{font-size:51px;}
	.st5{stroke:#000000;stroke-width:3;stroke-miterlimit:10;}
	.st6{font-size:22.0207px;}
	.st7{fill:none;stroke:#C1272D;stroke-width:0.75;stroke-miterlimit:10;}
	.st8{fill:#FFFFFF;}
	.st9{font-size:17px;}
	.st10{fill:#C1272D;stroke:#C1272D;stroke-width:2;stroke-miterlimit:10;}
	.st11{fill:#F2F2F2;}
	.st12{font-size:19px;}
	.st13{fill:none;stroke:#000000;stroke-width:3;stroke-miterlimit:10;}
	.st14{stroke:#000000;stroke-width:0.75;stroke-miterlimit:10;}
	.st15{stroke:#C1272D;stroke-width:3;stroke-miterlimit:10;}
	.st16{font-size:22px;}
	.st17{fill:none;stroke:#000000;stroke-width:2;stroke-miterlimit:10;}
</style>
<line class="st0" x1="1041.9" y1="243.8" x2="1041.9" y2="504.3"/>
<line class="st0" x1="191" y1="230.3" x2="191" y2="562.7"/>
<g>
	<path class="st1" d="M51.4,251.2c-6.3,0-11.5-5.2-11.5-11.5v-47.8c0-6.3,5.2-11.5,11.5-11.5h1263.2c6.3,0,11.5,5.2,11.5,11.5v47.8
		c0,6.3-5.2,11.5-11.5,11.5H51.4z"/>
	<path class="st1" d="M1314.6,180.8c6.1,0,11,4.9,11,11v47.8c0,6.1-4.9,11-11,11H51.4c-6.1,0-11-4.9-11-11v-47.8c0-6.1,4.9-11,11-11
		H1314.6 M1314.6,179.8H51.4c-6.6,0-12,5.4-12,12v47.8c0,6.6,5.4,12,12,12h1263.2c6.6,0,12-5.4,12-12v-47.8
		C1326.6,185.2,1321.2,179.8,1314.6,179.8L1314.6,179.8z"/>
</g>
<rect x="121.9" y="154.5" class="st2" width="336.5" height="50.6"/>
<text transform="matrix(1 0 0 1 121.8548 192.3529)" class="st3 st4">OCTUBRE</text>
<rect x="551.7" y="151.6" class="st2" width="336.5" height="50.6"/>
<text transform="matrix(1 0 0 1 551.7482 189.4821)" class="st3 st4">NOVIEMBRE</text>
<rect x="981.6" y="154.5" class="st2" width="336.5" height="50.6"/>
<text transform="matrix(1 0 0 1 981.6415 192.3529)" class="st3 st4">DICIEMBRE</text>
<line class="st0" x1="138.6" y1="196.1" x2="138.6" y2="333.7"/>
<path class="st5" d="M153.7,428.9H30.4c-8,0-14.5-6.3-14.5-13.9v-76.7c0-7.6,6.5-13.9,14.5-13.9h123.2c8,0,14.5,6.3,14.5,13.9V415
	C168.2,422.6,161.7,428.9,153.7,428.9z"/>
<rect x="23.2" y="333.7" class="st2" width="139.5" height="28"/>
<text transform="matrix(1.041 0 0 1 23.1811 350.1104)" class="st1 st3 st6">VIERNES 13 </text>
<text transform="matrix(1.041 0 0 1 23.1811 350.1104)" class="st7 st3 st6">VIERNES 13 </text>
<rect x="28.2" y="358.6" class="st2" width="127.7" height="67.1"/>
<text transform="matrix(1.041 0 0 1 28.1757 370.7096)" class="st8 st3 st9">Accidente del </text>
<text transform="matrix(1.041 0 0 1 28.1757 390.1803)" class="st8 st3 st9">avión en la </text>
<text transform="matrix(1.041 0 0 1 28.1757 409.651)" class="st8 st3 st9">cordillera</text>
<line class="st0" x1="83.6" y1="430.6" x2="83.6" y2="457"/>
<path class="st10" d="M161.3,527.3H66.7c-8,0-14.5-6.3-14.5-13.9v-42.4c0-7.6,6.5-13.9,14.5-13.9h94.5c8,0,14.5,6.3,14.5,13.9v42.4
	C175.8,521,169.3,527.3,161.3,527.3z"/>
<rect x="61.8" y="465.7" class="st2" width="114" height="68.7"/>
<text transform="matrix(1.041 0 0 1 61.7016 477.7535)" class="st11 st3 st9">Fallecen 13 </text>
<text transform="matrix(1.041 0 0 1 61.7016 497.2242)" class="st11 st3 st9">personas en </text>
<text transform="matrix(1.041 0 0 1 61.7016 516.6949)" class="st11 st3 st9">el impacto</text>
<path class="st5" d="M258.2,594H135c-8,0-14.5-6.3-14.5-13.9v-10.8c0-7.6,6.5-13.9,14.5-13.9h123.2c8,0,14.5,6.3,14.5,13.9v10.8
	C272.7,587.8,266.1,594,258.2,594z"/>
<rect x="126.8" y="565.9" class="st2" width="139.5" height="28"/>
<text transform="matrix(1.041 0 0 1 126.8002 582.2555)" class="st1 st3 st6">SÁBADO 14 </text>
<text transform="matrix(1.041 0 0 1 126.8002 582.2555)" class="st7 st3 st6">SÁBADO 14 </text>
<line class="st0" x1="141.9" y1="595.5" x2="141.9" y2="647.9"/>
<path class="st10" d="M185.8,708.5H91.3c-8,0-14.5-6.3-14.5-13.9v-42.4c0-7.6,6.5-13.9,14.5-13.9h94.5c8,0,14.5,6.3,14.5,13.9v42.4
	C200.3,702.3,193.8,708.5,185.8,708.5z"/>
<rect x="81.5" y="647.9" class="st2" width="114" height="68.7"/>
<text transform="matrix(1.041 0 0 1 81.5116 659.9293)" class="st11 st3 st9">Fallecen 4 </text>
<text transform="matrix(1.041 0 0 1 81.5116 679.4)" class="st11 st3 st9">personas y </text>
<text transform="matrix(1.041 0 0 1 81.5116 698.8717)" class="st11 st3 st9">frío</text>
<line class="st0" x1="327.4" y1="233.8" x2="327.4" y2="307.8"/>
<path class="st5" d="M366.4,440.3H247.1c-7.7,0-14-6.6-14-14.7V322.5c0-8.1,6.3-14.7,14-14.7h119.3c7.7,0,14,6.6,14,14.7v103.1
	C380.4,433.7,374.1,440.3,366.4,440.3z"/>
<rect x="259.5" y="318.7" class="st2" width="115.6" height="24.2"/>
<text transform="matrix(1 0 0 1 259.532 332.7762)" class="st1 st3 st12">SÁBADO 21 </text>
<text transform="matrix(1 0 0 1 259.532 332.7762)" class="st7 st3 st12">SÁBADO 21 </text>
<rect x="259.5" y="342.9" class="st2" width="113.7" height="104.2"/>
<text transform="matrix(1 0 0 1 242.2663 355.7682)" class="st8 st3 st9">Suspenden </text>
<text transform="matrix(1 0 0 1 242.2663 377.9557)" class="st8 st3 st9">operaciones de </text>
<text transform="matrix(1 0 0 1 242.2663 400.1442)" class="st8 st3 st9">búsqueda de </text>
<text transform="matrix(1 0 0 1 242.2663 422.3317)" class="st8 st3 st9">sobrevivientes</text>
<line class="st13" x1="476.7" y1="73.6" x2="477.2" y2="681"/>
<line class="st13" x1="934.5" y1="139.8" x2="934.5" y2="251.7"/>
<line class="st0" x1="408.3" y1="244.7" x2="408.3" y2="476.5"/>
<path class="st5" d="M423,563.2H310.2c-7.3,0-13.3-6-13.3-13.3v-74.1c0-7.3,6-13.3,13.3-13.3H423c7.3,0,13.3,6,13.3,13.3v74.1
	C436.3,557.2,430.3,563.2,423,563.2z"/>
<rect x="317.4" y="477.3" class="st2" width="115.6" height="24.2"/>
<text transform="matrix(1 0 0 1 317.3553 491.4088)" class="st1 st3 st12">SÁBADO 27 </text>
<text transform="matrix(1 0 0 1 317.3553 491.4088)" class="st7 st3 st12">SÁBADO 27 </text>
<rect x="318.3" y="501.5" class="st2" width="99.7" height="104.2"/>
<text transform="matrix(1 0 0 1 311.4039 514.1998)" class="st8 st3 st9">Ocurre un </text>
<text transform="matrix(1 0 0 1 311.4039 530.9999)" class="st8 st3 st9">alud mientras </text>
<text transform="matrix(1 0 0 1 311.4039 547.7999)" class="st8 st3 st9">duermen</text>
<line class="st0" x1="344.2" y1="565.9" x2="344.2" y2="600.3"/>
<path class="st10" d="M377.2,647.9h-72.5c-7.9,0-14.3-7.2-14.3-15.9V608c0-8.8,6.4-15.9,14.3-15.9h72.5c7.9,0,14.3,7.2,14.3,15.9
	V632C391.5,640.7,385.1,647.9,377.2,647.9z"/>
<rect x="297" y="597.9" class="st2" width="94.5" height="59.3"/>
<text transform="matrix(1 0 0 1 296.9794 619.1499)" class="st11 st3 st9">Fallecen 8 </text>
<text transform="matrix(1 0 0 1 296.9794 635.95)" class="st11 st3 st9">personas</text>
<path class="st14" d="M899.9,352H430c-6.6,0-12-5.4-12-12v-39.5c0-6.6,5.4-12,12-12h469.9c6.6,0,12,5.4,12,12V340
	C911.9,346.6,906.5,352,899.9,352z"/>
<rect x="427.9" y="298.3" class="st2" width="410.6" height="53.7"/>
<text transform="matrix(1 0 0 1 427.9388 312.4128)" class="st1 st3 st12">DURANTE LAS SEMANAS SIGUIENTES </text>
<text transform="matrix(1 0 0 1 427.9388 312.4128)" class="st7 st3 st12">DURANTE LAS SEMANAS SIGUIENTES </text>
<line class="st0" x1="893.2" y1="218.8" x2="893.2" y2="288.5"/>
<line class="st0" x1="437.8" y1="228.6" x2="437.8" y2="288.5"/>
<rect x="427.9" y="321.7" class="st2" width="265.1" height="18.1"/>
<text transform="matrix(1 0 0 1 427.9389 332.1313)" class="st8 st3 st9">Duras condiciones de supervivencia</text>
<line class="st13" x1="934.2" y1="72.3" x2="934.7" y2="675.6"/>
<line class="st0" x1="508.2" y1="352" x2="508.2" y2="426.1"/>
<path class="st10" d="M843.8,477.3H500.5c-7.6,0-13.9-5.4-13.9-12v-27.2c0-6.6,6.2-12,13.9-12h343.4c7.6,0,13.9,5.4,13.9,12v27.2
	C857.7,471.9,851.5,477.3,843.8,477.3z"/>
<rect x="499" y="438.3" class="st2" width="296.4" height="59.3"/>
<text transform="matrix(1 0 0 1 498.9876 448.6837)" class="st11 st3 st9">Fallecen durante esos días, solo quedan </text>
<text transform="matrix(1 0 0 1 498.9876 465.4837)" class="st11 st3 st9">16 pasajeros con vida</text>
<path class="st14" d="M1113.1,460.7H961.4c-7.1,0-12.9-6.6-12.9-14.7V318c0-8.1,5.8-14.7,12.9-14.7h151.8c7.1,0,12.9,6.6,12.9,14.7
	v128C1126,454.1,1120.2,460.7,1113.1,460.7z"/>
<rect x="998.5" y="429.5" class="st2" width="168.3" height="53.7"/>
<text transform="matrix(1 0 0 1 957.718 334.3896)" class="st1 st3 st12">DESPUÉS DE </text>
<text transform="matrix(1 0 0 1 957.718 334.3896)" class="st7 st3 st12">DESPUÉS DE </text>
<text transform="matrix(1 0 0 1 957.718 357.1896)" class="st1 st3 st12">CASI 2 MESES</text>
<text transform="matrix(1 0 0 1 957.718 357.1896)" class="st7 st3 st12">CASI 2 MESES</text>
<line class="st0" x1="1018.6" y1="233.5" x2="1018.6" y2="303.3"/>
<rect x="957.7" y="367.7" class="st2" width="160.7" height="59.3"/>
<rect x="578.7" y="185.9" class="st15" width="0" height="32.9"/>
<path class="st14" d="M1202.4,592.8H958.2c-8,0-14.5-5.3-14.5-11.7v-72.5c0-6.4,6.5-11.7,14.5-11.7h244.3c8,0,14.5,5.3,14.5,11.7
	v72.5C1217,587.5,1210.5,592.8,1202.4,592.8z"/>
<rect x="957" y="506.8" class="st2" width="115.6" height="24.2"/>
<text transform="matrix(1 0 0 1 957.0499 520.9014)" class="st1 st3 st12">MARTES 12</text>
<text transform="matrix(1 0 0 1 957.0499 520.9014)" class="st7 st3 st12">MARTES 12</text>
<rect x="957" y="533.5" class="st2" width="208" height="59.3"/>
<text transform="matrix(1 0 0 1 957.0498 543.9379)" class="st11 st3 st9">Nando Parrado y Roberto </text>
<text transform="matrix(1 0 0 1 957.0498 560.7379)" class="st11 st3 st9">Canessa parten en bísqueda </text>
<text transform="matrix(1 0 0 1 957.0498 577.538)" class="st11 st3 st9">de ayuda</text>
<line class="st0" x1="1273.1" y1="230.3" x2="1273.1" y2="298.3"/>
<path class="st14" d="M1342.9,483.2h-194c-7.3,0-13.3-6.3-13.3-14V311.5c0-7.7,6-14,13.3-14h194c7.3,0,13.3,6.3,13.3,14v157.7
	C1356.3,476.9,1350.3,483.2,1342.9,483.2z"/>
<rect x="1169.5" y="309.6" class="st2" width="158.4" height="24.2"/>
<text transform="matrix(1 0 0 1 1169.5494 323.7309)" class="st1 st3 st12">SÁBADO 23</text>
<text transform="matrix(1 0 0 1 1169.5494 323.7309)" class="st7 st3 st12">SÁBADO 23</text>
<rect x="1149.2" y="334.4" class="st2" width="194.9" height="142.9"/>
<text transform="matrix(1 0 0 1 1149.2002 347.0137)"><tspan x="0" y="0" class="st11 st3 st9">Después de recorrer </tspan><tspan x="0" y="20.4" class="st11 st3 st9">varios kilometros se </tspan><tspan x="0" y="40.8" class="st11 st3 st9">encuentran con el </tspan><tspan x="0" y="61.2" class="st11 st3 st9">arriero  Sergio Cata</tspan><tspan x="165.6" y="61.2" class="st11 st3 st9">-</tspan><tspan x="0" y="81.6" class="st11 st3 st9">lán, quien va a buscar </tspan><tspan x="0" y="102" class="st11 st3 st9">ayuda y se inicia el </tspan><tspan x="0" y="122.4" class="st11 st3 st9">rescate</tspan></text>
<rect x="1155.7" y="645.6" class="st2" width="223.4" height="17"/>
<text transform="matrix(1 0 0 1 1118.4005 659.6477)" class="st3 st16">SIMBOLOGÍA:</text>
<circle cx="1132.2" cy="687.9" r="13.8"/>
<circle class="st1" cx="1132.2" cy="728.4" r="13.8"/>
<rect x="1187.6" y="679.4" class="st2" width="223.4" height="17"/>
<text transform="matrix(1 0 0 1 1149.2554 696.3998)" class="st3 st9">HITOS IMPORTANTES</text>
<rect x="1149.2" y="719.9" class="st2" width="223.4" height="17"/>
<text transform="matrix(1 0 0 1 1155.7004 732.1379)" class="st3 st9">FALLECIMIENTOS</text>
<path class="st17" d="M1365.2,795.8H1113c-7.6,0-13.9-5.4-13.9-12v-143c0-6.6,6.2-12,13.9-12h252.2c7.6,0,13.9,5.4,13.9,12v143
	C1379.1,790.4,1372.9,795.8,1365.2,795.8z"/>
<rect x="969.6" y="369.9" class="st2" width="125.9" height="129.3"/>
<text transform="matrix(1.1633 0 0 1 969.6055 382.4777)"><tspan x="0" y="0" class="st8 st3 st9">2 de los so</tspan><tspan x="88.8" y="0" class="st8 st3 st9">-</tspan><tspan x="0" y="20.4" class="st8 st3 st9">brevivientes </tspan><tspan x="0" y="40.8" class="st8 st3 st9">deciden </tspan><tspan x="0" y="61.2" class="st8 st3 st9">pedir ayuda</tspan></text>
</svg>
